<svg version="1.1" id="Layer_1" xmlns="http://www.w3.org/2000/svg" xmlns:xlink="http://www.w3.org/1999/xlink" x="0px" y="0px"
	 width="100%" viewBox="0 0 624 608" enable-background="new 0 0 624 608" xml:space="preserve">
<path fill="#000000" opacity="1.000000" stroke="none" 
	d="
M384.271545,27.591785 
	C408.782166,37.681622 430.364075,51.598244 449.049194,69.861061 
	C468.564087,88.934853 484.076874,110.822266 494.649963,136.076706 
	C495.238434,137.482300 496.820618,139.134415 494.726624,140.456940 
	C493.197021,141.423004 491.999359,140.455017 490.915955,139.169647 
	C488.159424,135.899124 485.720642,136.125595 483.583618,139.889008 
	C482.107574,142.488419 481.009369,145.305069 479.495148,147.879257 
	C478.394287,149.750809 476.876984,151.589554 474.368164,151.220413 
	C471.980194,150.869064 470.852722,148.891556 469.988708,146.837418 
	C469.731232,146.225357 469.634918,145.542511 469.354950,144.943420 
	C468.382446,142.862427 468.814178,139.020035 465.318970,139.722748 
	C462.003571,140.389328 463.600891,143.874283 463.366791,146.169098 
	C463.182037,147.980698 463.061188,149.900009 463.449402,151.652405 
	C465.946533,162.924683 461.109253,170.897003 452.471588,177.487656 
	C444.543640,183.536758 437.302185,190.592453 427.701111,194.094116 
	C421.082611,196.508011 419.210052,195.891174 415.868195,189.879822 
	C410.687347,180.560410 405.942017,171.005859 401.820740,161.169586 
	C399.752869,156.234222 401.493896,151.301865 402.829315,146.520218 
	C403.495361,144.135437 405.609406,144.600754 407.419525,145.212906 
	C408.032379,145.420151 408.683777,145.779327 409.100739,146.257980 
	C412.691345,150.379456 416.369385,153.933075 422.652954,152.949127 
	C431.174225,151.614777 439.217926,149.897552 445.127930,142.603073 
	C451.123199,135.203369 456.891785,127.737572 461.309021,119.250214 
	C464.679688,112.773804 465.548523,105.977440 464.702789,98.887276 
	C464.161102,94.346214 461.754395,90.666931 458.138031,88.057007 
	C438.314850,73.750580 419.131866,74.245316 404.460175,96.816956 
	C401.670166,101.109276 399.809418,106.018639 397.645874,110.701485 
	C395.417480,115.524521 393.974976,116.253113 389.150787,113.970039 
	C380.039276,109.657967 372.197968,103.425308 364.444366,97.106956 
	C352.582001,87.440498 340.117371,78.966194 324.624847,76.244499 
	C313.471893,74.285179 302.453461,75.229866 291.415771,77.399475 
	C274.073639,80.808304 257.356598,86.506363 240.348587,91.125359 
	C231.967712,93.401413 223.418472,94.667351 214.994812,96.617363 
	C207.939636,98.250572 201.446304,101.206863 195.220154,104.796753 
	C192.467133,106.384087 189.226974,108.165436 189.783371,111.839645 
	C190.638062,117.483856 193.600632,119.612221 199.007034,119.581299 
	C199.494934,119.578506 199.983658,119.720802 200.449875,119.792328 
	C202.348801,125.707916 202.538071,125.782837 208.151443,122.868210 
	C208.890640,122.484398 209.593338,122.002670 210.369308,121.722298 
	C212.989044,120.775764 215.562302,118.598099 218.393036,119.744278 
	C221.733383,121.096809 219.568375,124.483681 220.178467,126.894882 
	C220.392334,127.740105 220.618774,128.485626 221.819489,128.934769 
	C224.562531,127.358620 224.787766,124.462730 224.673950,121.737206 
	C224.418777,115.625252 227.710098,112.211845 232.835983,109.880135 
	C244.407486,104.616341 256.916016,103.594559 269.249969,101.893692 
	C281.764648,100.167923 294.540863,100.592453 306.900726,97.621536 
	C310.713074,96.705170 312.788696,99.152405 314.455231,101.302628 
	C320.960236,109.695686 329.246460,115.580200 338.748535,119.989922 
	C339.450745,120.315796 339.985901,121.001633 341.219086,122.044983 
	C335.786713,128.335129 330.553101,134.511597 325.167755,140.552811 
	C323.735809,142.159134 321.484344,141.882385 319.492188,141.939713 
	C291.690704,142.739746 263.888306,143.509857 236.087936,144.347824 
	C231.265427,144.493210 226.451340,144.917969 221.621506,145.455994 
	C253.349640,145.662689 284.994965,147.638031 317.992249,148.312363 
	C312.736267,156.363022 308.654816,162.308472 299.394287,162.074326 
	C287.917633,161.784149 276.428162,162.412308 264.940308,162.957809 
	C246.643951,163.826614 228.310120,163.904572 209.992401,164.328629 
	C208.887344,164.354218 207.784637,164.482193 206.675568,165.075684 
	C237.727020,165.766968 268.734253,166.977814 299.887421,169.045486 
	C295.422028,174.969986 292.389984,181.482361 283.284851,181.511475 
	C264.142914,181.572662 245.005325,182.630447 225.863373,183.191498 
	C214.051010,183.537735 202.268890,184.735352 190.407303,185.040512 
	C219.292038,185.854111 248.176773,186.667725 276.697296,187.471069 
	C277.493073,190.287186 276.032898,190.550568 275.157562,191.132095 
	C271.414948,193.618561 267.164795,195.553528 263.969238,198.601273 
	C259.180298,203.168610 253.642807,204.047958 247.509140,204.196701 
	C223.862213,204.770203 200.218811,205.488876 176.573929,206.147369 
	C175.457336,206.178467 174.339142,206.151367 173.221695,206.151367 
	C173.208145,206.560089 173.194580,206.968811 173.181015,207.377533 
	C198.326157,208.292175 223.471283,209.206818 249.902969,210.168243 
	C245.923233,216.125092 242.795151,221.094116 239.342224,225.826096 
	C238.064713,227.576828 235.645508,226.996613 233.675247,227.059036 
	C209.206451,227.834213 184.737061,228.591644 160.268219,229.365616 
	C159.792908,229.380630 159.322189,229.540115 158.834442,230.066711 
	C184.197449,231.229492 209.611450,231.330811 235.954468,233.265839 
	C233.536041,238.624008 231.829437,243.031982 229.105377,246.964081 
	C228.017639,248.534195 226.185532,248.440186 224.542023,248.492081 
	C204.400040,249.128113 184.256653,249.719925 164.114853,250.361313 
	C162.350784,250.417496 160.504333,249.925751 158.719666,250.905518 
	C159.552200,252.260788 160.834976,251.678986 161.842682,251.704819 
	C180.493958,252.182831 199.146652,252.607117 217.799103,253.039413 
	C225.020309,253.206772 225.112091,253.793747 222.166748,260.362793 
	C219.464035,266.390778 215.433563,268.510590 208.894608,268.322083 
	C190.589539,267.794312 172.326645,269.927643 153.853790,270.187653 
	C154.794952,270.351776 155.733154,270.639099 156.677704,270.661774 
	C173.663208,271.069641 190.649399,271.450043 207.635666,271.826080 
	C214.485397,271.977722 215.116058,272.761780 211.434418,278.562500 
	C201.687134,293.920013 206.928558,291.562103 188.793411,292.027405 
	C180.988205,292.227600 173.190475,292.720032 165.382584,293.659668 
	C176.288223,294.153961 187.193848,294.648254 199.186951,295.191803 
	C195.410706,301.683533 190.611511,305.489410 185.530640,308.705994 
	C172.593185,316.896362 159.086731,324.252380 148.424118,335.571259 
	C145.751190,338.408661 144.211060,336.517761 142.584274,334.270050 
	C133.058380,321.108276 125.443604,306.888245 119.258621,291.904022 
	C106.955780,262.098206 102.408325,230.923508 105.059647,198.976334 
	C107.828125,165.617416 118.324455,134.565491 136.605209,106.316864 
	C157.375061,74.221909 184.821304,49.554256 219.212936,32.894939 
	C239.393219,23.119608 260.645355,16.995661 283.093628,14.322781 
	C307.053375,11.469932 330.565674,12.820749 353.966339,17.995085 
	C364.206421,20.259371 374.181824,23.502089 384.271545,27.591785 
z"/>
<path fill="#000000" opacity="1.000000" stroke="none" 
	d="
M394.655090,223.370010 
	C400.536652,227.765167 406.753571,230.309265 413.782776,230.706482 
	C424.216309,231.296051 430.782501,224.128036 438.113983,218.538437 
	C451.341980,208.453217 460.916382,194.810989 472.513702,183.143906 
	C481.311279,174.293427 490.605499,165.936340 499.699799,157.382126 
	C500.026733,157.074615 500.577972,157.005554 501.559631,156.609512 
	C504.530609,162.617325 505.936371,169.040558 507.053009,175.466125 
	C509.818451,191.380264 512.056641,207.360977 511.172180,223.600830 
	C508.716949,268.681946 493.972870,309.162262 465.393890,344.262054 
	C444.979126,369.334808 419.941772,388.646149 390.354004,401.795502 
	C370.300964,410.707458 349.282837,416.066528 327.401947,418.347565 
	C303.933899,420.794067 280.822418,418.892944 258.083862,413.146729 
	C225.541595,404.923035 196.804611,389.320343 171.710785,366.993652 
	C168.625763,364.248749 170.048721,363.016205 172.572662,360.949890 
	C188.505341,347.905945 206.898300,339.522064 225.796783,331.907196 
	C234.113327,328.556183 240.558960,322.706177 245.860428,315.233795 
	C257.288483,299.126007 269.920624,284.134521 287.985107,274.808807 
	C290.898285,273.304901 292.198425,273.035431 294.181976,276.239532 
	C297.343933,281.347107 303.205048,282.942657 308.567719,284.572845 
	C315.553650,286.696503 322.754639,288.108948 329.851135,289.875427 
	C331.395142,290.259766 332.888550,290.847137 334.135284,291.253052 
	C334.446930,293.055969 333.612457,293.644012 332.728149,294.134552 
	C320.789978,300.757812 308.682800,307.095276 296.947113,314.059082 
	C286.112274,320.488403 274.506470,320.741241 262.608826,319.685730 
	C255.526993,319.057465 253.463272,320.580109 252.154068,327.650787 
	C250.158737,338.426941 247.268677,349.030273 247.232864,360.140625 
	C247.196869,371.309601 250.105927,381.848846 253.345810,392.330475 
	C254.839172,397.161835 260.983765,400.073761 265.897369,398.839722 
	C268.875519,398.091797 269.791718,395.944977 269.753235,393.205139 
	C269.637726,384.989716 271.288879,376.996490 272.630341,368.952515 
	C275.666534,350.746460 287.056976,339.519958 305.257385,336.918488 
	C325.004791,334.095917 344.474579,329.813477 363.953766,325.602417 
	C369.848663,324.328033 375.319458,321.722443 380.507538,318.749603 
	C390.117310,313.243103 394.034576,299.993652 389.074799,289.075043 
	C385.362030,280.901672 381.028503,273.003235 376.809937,265.068176 
	C369.001404,250.380341 361.778595,235.343872 351.648315,222.009842 
	C350.420013,220.393021 349.837433,218.791412 351.832458,217.264359 
	C360.272675,210.803864 368.702942,204.330383 377.543823,197.549530 
	C383.998016,205.905731 387.110779,215.939713 394.655090,223.370010 
z"/>
<path fill="#000000" opacity="1.000000" stroke="none" 
	d="
M312.172913,475.000458 
	C312.177429,497.818024 312.184509,520.135742 312.183136,542.453491 
	C312.182678,550.100586 312.128113,550.144653 304.297760,550.163391 
	C303.464996,550.165405 302.632263,550.163757 301.799500,550.163818 
	C287.124054,550.164612 287.179871,550.127747 278.977234,537.720642 
	C270.084442,524.269592 261.073578,510.896576 252.084503,497.445038 
	C250.351166,498.354279 251.099792,499.826172 251.098816,501.001038 
	C251.086823,515.323669 251.014603,529.647949 251.221344,543.967957 
	C251.285294,548.398071 249.894882,550.444580 245.232605,550.209045 
	C240.248840,549.957336 235.241882,550.101868 230.246338,550.169373 
	C227.140442,550.211304 225.703064,548.910400 225.708771,545.701904 
	C225.760269,516.722473 225.773254,487.742798 225.722031,458.763306 
	C225.716400,455.578003 227.057495,454.168976 230.156158,454.169678 
	C236.151459,454.171112 242.147842,454.197388 248.141617,454.091125 
	C251.323471,454.034729 252.872574,456.056610 254.337494,458.379333 
	C264.905884,475.136322 275.489258,491.883911 286.066742,508.635162 
	C286.398529,509.160614 286.717499,509.694153 287.639374,511.197113 
	C286.539001,493.882111 287.042053,477.653168 286.921112,461.428406 
	C286.867920,454.289886 287.081482,454.107452 294.087433,454.070679 
	C298.417633,454.047943 302.749237,454.099762 307.077698,454.004456 
	C310.574036,453.927429 312.308960,455.281525 312.190948,459.012604 
	C312.027863,464.170319 312.164124,469.337494 312.172913,475.000458 
z"/>
<path fill="#000000" opacity="1.000000" stroke="none" 
	d="
M370.349060,516.597534 
	C365.775085,509.693420 361.402832,503.089508 356.234650,495.283356 
	C356.234650,503.537628 356.232605,510.450714 356.235138,517.363770 
	C356.238495,526.524170 356.131927,535.686768 356.304962,544.843994 
	C356.377319,548.672791 355.017609,550.354980 351.096741,550.197266 
	C346.607147,550.016724 342.104462,550.179810 337.607697,550.154602 
	C331.486816,550.120239 331.026611,549.710083 331.015015,543.663208 
	C330.982788,526.841309 331.004639,510.019318 331.005005,493.197357 
	C331.005249,482.537903 330.999786,471.878448 331.007233,461.218994 
	C331.012146,454.172668 331.115692,454.080048 338.375214,454.064758 
	C338.874878,454.063721 339.374542,454.066528 339.874207,454.067078 
	C357.550751,454.085876 357.484741,454.127045 366.713623,468.927307 
	C375.340851,482.762787 384.128510,496.498169 392.686005,510.025360 
	C392.686005,493.762421 392.884094,477.114990 392.568939,460.477325 
	C392.470551,455.282837 394.286102,453.694611 399.168549,454.016235 
	C403.812103,454.322052 408.490814,454.077545 413.153748,454.111664 
	C415.969421,454.132294 417.324890,455.415741 417.319336,458.416290 
	C417.265381,487.563110 417.270142,516.710083 417.318909,545.856873 
	C417.323792,548.785583 416.167389,550.208191 413.215454,550.151733 
	C411.384216,550.116638 409.551514,550.161804 407.719482,550.162476 
	C392.418335,550.168274 392.464539,550.137878 384.131287,537.248657 
	C379.703918,530.400696 375.083832,523.677307 370.349060,516.597534 
z"/>
<path fill="#000000" opacity="1.000000" stroke="none" 
	d="
M564.553955,510.397369 
	C560.471985,511.574036 561.825684,513.687317 563.158386,515.771362 
	C568.988220,524.887634 574.857300,533.979065 580.635620,543.127869 
	C581.746399,544.886475 583.513672,546.440430 583.115723,549.194763 
	C579.602905,551.008423 575.678894,549.505737 572.043762,550.185425 
	C559.186646,552.589172 551.105713,547.950378 546.820007,535.234497 
	C544.364807,527.950134 539.910217,521.339600 535.164001,514.609131 
	C535.164001,523.829590 535.170044,533.049988 535.162109,542.270447 
	C535.155334,550.127563 535.148193,550.131104 527.514526,550.145996 
	C523.516296,550.153748 519.513184,550.022278 515.521301,550.181702 
	C511.599365,550.338257 509.755829,548.967102 509.772675,544.734070 
	C509.886078,516.247070 509.859131,487.759369 509.829285,459.271973 
	C509.826263,456.388123 510.543518,454.219452 513.862122,454.242493 
	C528.489502,454.344086 543.232666,452.664795 557.693176,455.772217 
	C578.511169,460.245697 588.029358,486.187103 575.260986,502.883606 
	C572.549255,506.429535 569.249084,509.084351 564.553955,510.397369 
M535.174316,493.173187 
	C535.395325,495.078339 534.783325,497.278748 537.127563,498.409851 
	C541.980042,500.751312 551.792236,496.925171 553.869934,491.865051 
	C558.207336,481.301483 551.937378,473.749054 539.388489,474.193237 
	C536.447510,474.297363 535.111023,475.258240 535.169617,478.267487 
	C535.260193,482.923889 535.177551,487.583679 535.174316,493.173187 
z"/>
<path fill="#000000" opacity="1.000000" stroke="none" 
	d="
M94.547997,515.486084 
	C101.716515,526.670532 108.690773,537.556396 115.503349,548.189880 
	C114.005409,550.606079 112.184509,550.119751 110.603012,550.133240 
	C104.106590,550.188354 97.603867,549.990051 91.114632,550.211853 
	C87.391830,550.339172 85.459648,548.812195 83.861328,545.519165 
	C79.064568,535.636047 73.912971,525.925171 68.899887,516.147095 
	C68.614655,515.590759 68.508904,514.864807 67.188591,514.822510 
	C67.188591,524.253357 67.208878,533.674683 67.181717,543.095825 
	C67.162415,549.792786 66.836418,550.101562 60.099827,550.134399 
	C55.602093,550.156311 51.102890,550.067810 46.606712,550.153320 
	C43.379749,550.214661 41.683067,549.130615 41.691185,545.549988 
	C41.756905,516.563965 41.717094,487.577759 41.717106,458.591583 
	C41.717106,456.703186 41.741398,454.692719 44.343910,454.604797 
	C59.806023,454.082214 75.439445,452.439484 90.598717,456.161041 
	C101.862129,458.926147 109.477669,466.801941 111.691132,478.540955 
	C113.704781,489.220215 111.930557,499.114471 103.165352,506.745544 
	C101.087837,508.554260 98.675194,509.578979 96.124191,510.374146 
	C93.391121,511.226044 92.644524,512.736938 94.547997,515.486084 
M86.233543,482.510529 
	C83.508614,475.906525 79.488289,473.807129 71.070465,474.190643 
	C68.339668,474.315033 67.141357,475.284454 67.177071,478.037903 
	C67.250336,483.686096 67.228584,489.336182 67.180214,494.984955 
	C67.159660,497.384491 68.064049,498.520569 70.621399,498.804596 
	C81.374863,499.998779 87.445496,494.119965 86.233543,482.510529 
z"/>
<path fill="#000000" opacity="1.000000" stroke="none" 
	d="
M128.779175,456.397797 
	C129.917587,453.874878 131.926102,454.181152 133.686523,454.146393 
	C138.517807,454.050934 143.354416,454.188141 148.183899,454.053223 
	C151.990860,453.946899 153.434738,455.462555 153.395767,459.390656 
	C153.233765,475.721191 153.379654,492.054474 153.311432,508.386353 
	C153.291580,513.140564 154.263794,517.647888 155.933609,522.039185 
	C158.094299,527.721497 161.746796,529.925598 168.456894,529.688538 
	C173.750656,529.501465 178.052811,526.281738 179.493515,521.160645 
	C180.531433,517.471313 181.075470,513.701599 181.062607,509.819794 
	C181.008987,493.654572 181.059189,477.488831 181.115662,461.323425 
	C181.139954,454.368073 181.387985,454.150055 188.536255,454.102966 
	C193.201660,454.072235 197.867783,454.105621 202.533249,454.147736 
	C205.577484,454.175232 207.089661,455.651672 207.023407,458.803894 
	C206.578873,479.949463 208.375198,501.159851 206.111053,522.232849 
	C204.629105,536.025513 196.768692,545.515076 183.215942,549.612793 
	C169.201904,553.849854 155.417465,553.326477 142.809586,545.425110 
	C133.819199,539.790833 128.843246,531.098450 128.736084,520.344177 
	C128.525208,499.181824 128.687225,478.015717 128.779175,456.397797 
z"/>
<path fill="#000000" opacity="1.000000" stroke="none" 
	d="
M491.328430,464.020264 
	C491.316284,474.210327 491.316284,474.215698 481.540894,474.227997 
	C476.544220,474.234253 471.543884,474.330780 466.552124,474.170776 
	C463.274017,474.065674 462.140106,475.453125 462.217712,478.627350 
	C462.602692,494.376862 459.851410,491.427399 474.814087,491.754791 
	C478.809570,491.842194 482.810333,491.843353 486.805328,491.745850 
	C489.904968,491.670197 491.424377,492.873291 491.350464,496.130066 
	C490.928680,514.711426 493.977295,510.905426 477.176605,511.369415 
	C476.677338,511.383209 476.177155,511.364197 475.677673,511.373596 
	C459.826538,511.671692 462.587341,508.644104 462.210358,525.247742 
	C462.137939,528.437500 463.256134,529.759949 466.537537,529.687073 
	C473.029724,529.542969 479.532349,529.816223 486.021881,529.622742 
	C489.751953,529.511597 491.534973,530.574280 491.409149,534.651855 
	C490.837769,553.165771 494.288391,549.844116 476.415100,550.119019 
	C465.091919,550.293213 453.762482,550.046936 442.438629,550.197937 
	C438.380310,550.251953 436.811768,548.748474 436.825745,544.638184 
	C436.922485,516.157227 436.906372,487.675659 436.820587,459.194611 
	C436.809601,455.538177 438.280457,454.100220 441.847168,454.111450 
	C456.670502,454.158081 471.494293,454.136902 486.317566,454.062073 
	C489.801788,454.044495 491.707764,455.255920 491.337097,459.041718 
	C491.191772,460.525940 491.323669,462.037323 491.328430,464.020264 
z"/>
<path fill="#000000" opacity="1.000000" stroke="none" 
	d="
M312.868896,236.002609 
	C318.846924,230.315857 326.075806,229.085693 331.715118,232.535172 
	C338.090393,236.434830 340.238953,243.094284 337.506714,251.274124 
	C336.785889,253.432129 336.987274,255.019028 338.404785,256.767181 
	C346.164703,266.337280 353.876892,275.946564 361.532104,285.600616 
	C362.918884,287.349518 364.700592,287.713898 366.702972,288.152130 
	C372.708954,289.466431 376.153900,294.775085 374.569611,299.932373 
	C372.775269,305.773438 367.057648,308.299561 361.045929,305.664795 
	C359.173737,304.844269 357.566864,304.875732 355.787292,305.539307 
	C333.183746,313.967438 310.562836,322.349426 287.986877,330.850800 
	C284.321869,332.230896 280.783997,333.616852 278.671936,337.720001 
	C276.724792,341.502655 271.719360,342.150696 268.123260,339.771973 
	C264.778992,337.559784 263.023743,334.491821 264.708679,330.370667 
	C266.416290,326.194000 270.846222,323.757416 274.804901,325.514832 
	C278.293457,327.063538 281.164429,326.295044 284.352875,325.098114 
	C306.471313,316.795319 328.616913,308.565033 350.753662,300.311005 
	C357.422058,297.824615 358.779968,293.264282 354.463501,287.863373 
	C347.704926,279.406769 340.865082,271.012970 334.241150,262.452148 
	C332.277618,259.914520 330.234039,258.782196 327.021515,259.430786 
	C320.383911,260.770996 315.164337,258.359497 311.719971,252.648193 
	C308.381836,247.113037 308.845917,241.556122 312.868896,236.002609 
z"/>
<path fill="#000000" opacity="1.000000" stroke="none" 
	d="
M432.391968,582.072266 
	C431.090607,583.339722 430.002136,584.320435 428.998413,585.224792 
	C429.171326,585.791077 429.174835,586.193604 429.377594,586.405334 
	C431.145416,588.251160 432.010437,591.793091 435.045563,591.341736 
	C437.746643,590.940063 437.912689,587.590515 438.929291,585.383728 
	C441.712036,579.343018 444.542938,573.322144 447.185699,567.220215 
	C448.343018,564.547974 450.153229,563.569275 452.980133,563.475098 
	C455.971954,563.375366 456.984528,565.200256 457.968170,567.448364 
	C461.367950,575.218079 464.856903,582.948792 468.260468,590.716919 
	C468.910980,592.201660 469.965607,593.618835 469.478729,595.723206 
	C466.402618,597.582336 463.566772,597.449158 461.832245,593.817871 
	C460.447083,590.917969 458.351898,590.185791 455.407776,590.304504 
	C450.270569,590.511719 444.882721,589.100037 441.752777,595.507690 
	C440.502960,598.066284 428.840881,596.575928 426.542389,594.069946 
	C424.744537,592.109863 423.038727,590.065613 421.278625,588.070557 
	C420.113403,586.749817 418.732758,585.861572 416.889130,586.387817 
	C414.743073,587.000305 415.085602,588.883545 414.908722,590.493652 
	C414.764160,591.809631 414.731720,593.163818 414.377106,594.424500 
	C413.864624,596.246582 412.269348,596.291321 410.720551,596.240173 
	C408.983582,596.182800 407.788483,595.409119 407.778534,593.567749 
	C407.729187,584.419067 407.637817,575.268372 407.787750,566.122131 
	C407.832062,563.419617 410.296295,563.336792 412.299896,563.344116 
	C415.790253,563.356934 419.282379,563.501404 422.769409,563.677368 
	C433.461670,564.216858 437.847748,572.314087 432.391968,582.072266 
M415.906311,578.336304 
	C418.498871,580.039490 421.289215,579.835815 424.050323,578.999329 
	C426.117004,578.373352 427.562927,576.906372 427.514954,574.648193 
	C427.466003,572.343811 425.780487,571.124390 423.767639,570.524719 
	C417.017426,568.513367 414.450867,570.747192 415.906311,578.336304 
M454.082214,576.737976 
	C453.634766,575.916931 453.645782,574.769775 452.132538,574.370605 
	C451.009796,576.918518 449.051544,579.165405 449.075775,582.293274 
	C451.388153,583.620483 453.512787,583.691040 455.681702,582.494019 
	C456.234955,580.448120 454.847534,578.997620 454.082214,576.737976 
z"/>
<path fill="#000000" opacity="1.000000" stroke="none" 
	d="
M327.063324,94.924698 
	C324.079254,92.803528 321.410156,91.710312 317.988281,93.236099 
	C315.802368,94.210793 313.057312,93.873756 311.414154,92.113472 
	C308.423248,88.909370 304.967987,89.888054 301.694672,90.609863 
	C284.660706,94.366089 267.424805,97.049652 250.340958,100.501900 
	C244.509155,101.680374 238.030396,101.441200 233.205795,106.288780 
	C231.364136,108.139214 228.759140,107.357071 226.866821,105.612221 
	C225.159515,104.037994 224.311157,102.022133 225.425674,99.763054 
	C226.528473,97.527756 228.533646,95.579605 230.951401,96.370880 
	C239.797028,99.265862 247.982147,95.412155 256.323608,94.106071 
	C271.398987,91.745590 286.332581,88.486069 301.339661,85.678154 
	C304.515198,85.083992 307.247894,84.384430 309.003510,81.082420 
	C310.466705,78.330368 313.496307,76.734550 316.627838,77.418724 
	C319.694244,78.088661 322.804565,79.720917 323.485138,83.232185 
	C324.211578,86.980347 326.734253,88.792290 329.647675,90.547272 
	C333.352844,92.779175 337.014832,95.091957 340.600525,97.510513 
	C344.636780,100.232971 348.209869,102.693375 353.782501,100.238945 
	C358.305389,98.246864 363.766022,102.592514 364.880066,107.711128 
	C365.936920,112.566986 362.394684,117.981453 357.438629,119.085732 
	C352.234528,120.245270 346.469391,116.955849 345.944550,111.437965 
	C345.525757,107.035210 343.223572,105.110077 339.990265,103.177864 
	C335.708588,100.619118 331.572113,97.817345 327.063324,94.924698 
z"/>
<path fill="#000000" opacity="1.000000" stroke="none" 
	d="
M284.723938,595.965210 
	C281.729767,593.967285 279.907257,591.358032 277.880615,588.939819 
	C276.447601,587.229919 274.888580,585.635376 272.382324,586.406311 
	C269.793579,587.202637 270.417999,589.533386 270.226593,591.435913 
	C270.064850,593.043762 270.536224,594.852051 268.810852,595.955078 
	C266.165405,597.646423 263.031097,595.964355 262.973541,592.565857 
	C262.832703,584.248718 262.933289,575.927795 262.897827,567.608521 
	C262.885315,564.671753 264.231598,563.365723 267.191681,563.512024 
	C270.180817,563.659790 273.179260,563.685486 276.172852,563.663696 
	C281.942902,563.621582 287.224396,564.484253 289.797119,570.635864 
	C292.371460,576.791321 289.644165,581.208679 284.881775,584.968201 
	C285.382660,589.422363 290.387085,591.071716 291.407379,595.207031 
	C289.335938,596.914734 287.170898,596.206665 284.723938,595.965210 
M275.616699,570.306519 
	C273.464813,570.473083 270.797821,569.552795 270.602142,573.280945 
	C270.425842,576.639282 270.962982,579.151428 274.987823,579.540222 
	C279.227203,579.949707 283.175446,577.994934 283.100220,574.987610 
	C282.993073,570.706116 279.715729,570.345459 275.616699,570.306519 
z"/>
<path fill="#000000" opacity="1.000000" stroke="none" 
	d="
M140.028625,586.960022 
	C137.616608,583.985657 135.423157,581.291077 133.229706,578.596497 
	C132.867874,578.651245 132.506027,578.705994 132.144196,578.760742 
	C132.144196,583.116943 132.072632,587.474792 132.168564,591.828857 
	C132.236053,594.891724 131.132935,596.464722 127.834930,596.427246 
	C124.185860,596.385681 124.598137,594.039001 124.614204,591.618896 
	C124.664978,583.972656 124.587433,576.325562 124.607666,568.678955 
	C124.612244,566.946838 123.855026,564.766418 126.231430,563.965454 
	C128.724670,563.125183 130.727020,564.082642 132.341003,566.139221 
	C135.521942,570.192749 138.772095,574.192139 142.022400,578.190613 
	C142.524368,578.808167 143.178726,579.301819 144.802292,580.833862 
	C144.802292,575.832581 144.814575,571.951294 144.797791,568.070129 
	C144.787354,565.658386 145.313049,563.830627 148.298676,563.721252 
	C151.534500,563.602783 152.238373,565.463379 152.231934,568.139099 
	C152.212708,576.120911 152.243896,584.102783 152.204773,592.084412 
	C152.196747,593.722656 152.292664,595.563049 150.134109,596.103271 
	C148.279526,596.567505 146.878036,595.647339 145.780807,594.305847 
	C143.887238,591.990601 142.086761,589.599243 140.028625,586.960022 
z"/>
<path fill="#000000" opacity="1.000000" stroke="none" 
	d="
M116.416077,592.403320 
	C109.652672,597.795288 101.949875,598.672241 95.209709,594.845581 
	C88.241158,590.889404 87.075211,584.293213 87.778862,577.131470 
	C88.703293,567.722595 98.253990,561.210632 107.855507,563.237915 
	C117.299622,565.231995 123.287163,575.277954 120.647408,584.705017 
	C119.872238,587.473328 118.522392,589.936279 116.416077,592.403320 
M106.643692,590.114563 
	C112.433334,587.625122 114.561707,584.074341 113.636360,578.017944 
	C113.003418,573.875427 110.795959,570.930847 106.430145,570.225281 
	C102.631378,569.611389 99.034470,570.055664 96.665184,573.572388 
	C94.129517,577.335938 93.952309,581.395996 95.971924,585.406006 
	C98.011391,589.455383 101.524979,590.878723 106.643692,590.114563 
z"/>
<path fill="#000000" opacity="1.000000" stroke="none" 
	d="
M203.457626,584.184082 
	C198.571396,585.391235 200.702530,589.060486 200.305420,591.689697 
	C199.977997,593.857544 200.316727,596.191650 197.211929,596.442993 
	C194.310822,596.677979 192.858765,595.422546 192.869583,592.424744 
	C192.899002,584.269958 192.867981,576.114929 192.847488,567.959961 
	C192.841217,565.466980 193.624359,563.784302 196.517212,563.737305 
	C199.398087,563.690613 200.335236,565.228760 200.235840,567.811646 
	C200.216660,568.310181 200.217834,568.810547 200.232559,569.309326 
	C200.437073,576.234497 205.366074,579.263733 211.957123,576.584534 
	C213.473709,575.968079 213.813965,574.826416 213.865280,573.429871 
	C213.932510,571.600464 213.977753,569.770325 214.034302,567.940552 
	C214.110748,565.466125 215.001816,563.805237 217.832230,563.728821 
	C220.575653,563.654724 221.899841,565.019409 221.916016,567.604797 
	C221.968033,575.924316 221.961502,584.244690 221.910309,592.564270 
	C221.894455,595.141052 220.529938,596.556213 217.863785,596.581726 
	C215.029968,596.608887 214.267441,594.871155 214.013062,592.414185 
	C213.142181,584.002502 213.102585,584.006592 203.457626,584.184082 
z"/>
<path fill="#000000" opacity="1.000000" stroke="none" 
	d="
M325.890869,596.325378 
	C315.004486,598.529724 306.797607,594.357544 304.260132,585.636230 
	C301.674286,576.748718 305.880188,567.285339 314.059814,564.013611 
	C319.502136,561.836792 324.849762,562.393127 329.864716,565.450500 
	C331.424286,566.401184 333.280090,567.492493 331.800201,569.746826 
	C330.599091,571.576477 328.998657,572.381287 326.674713,571.248291 
	C324.912292,570.389038 322.917694,569.539124 321.018921,569.522278 
	C316.872650,569.485352 313.528564,571.420532 311.990234,575.406860 
	C310.417114,579.483398 310.425659,583.714417 313.352356,587.224731 
	C316.109039,590.531128 319.974274,590.734314 323.899261,589.745178 
	C325.739227,589.281372 327.507385,588.393738 327.301697,586.097900 
	C327.106201,583.916321 325.110840,583.704956 323.520905,583.575195 
	C321.148438,583.381653 319.080963,583.090393 319.249390,580.037354 
	C319.417480,576.989197 321.668396,576.965942 323.933685,576.866577 
	C333.767303,576.435425 337.002014,580.721741 333.789886,590.167236 
	C332.595947,593.677979 329.453857,595.022217 325.890869,596.325378 
z"/>
<path fill="#000000" opacity="1.000000" stroke="none" 
	d="
M250.798798,593.938965 
	C250.127869,594.911133 249.582123,595.950623 248.984314,595.981567 
	C242.355606,596.323608 235.720062,596.594849 229.083588,596.688416 
	C226.923111,596.718933 225.851135,595.195557 225.848495,593.041138 
	C225.837875,584.391602 225.850586,575.742065 225.834625,567.092529 
	C225.829483,564.309082 227.300323,563.274414 229.934601,563.344788 
	C235.585678,563.495850 241.238297,563.603455 246.890961,563.674255 
	C249.229340,563.703552 250.777206,564.554077 250.838501,567.097412 
	C250.904160,569.821472 249.125214,570.368958 246.876511,570.366760 
	C243.549881,570.363464 240.223114,570.396179 236.896622,570.433105 
	C234.885818,570.455383 233.271606,570.883789 233.290955,573.456665 
	C233.309235,575.886658 234.682251,576.639221 236.795151,576.655701 
	C239.955231,576.680359 243.115448,576.696716 246.275620,576.694946 
	C248.743042,576.693542 249.971130,577.941956 249.965317,580.370361 
	C249.959946,582.618103 248.647614,583.781250 246.526230,583.794128 
	C243.372971,583.813232 240.218033,583.623596 237.064499,583.504272 
	C235.018066,583.426941 233.400757,583.843201 233.307816,586.359863 
	C233.217575,588.802734 234.656052,589.567627 236.765854,589.574097 
	C240.092148,589.584412 243.421677,589.628845 246.744034,589.504395 
	C249.642380,589.395813 251.236053,590.417725 250.798798,593.938965 
z"/>
<path fill="#000000" opacity="1.000000" stroke="none" 
	d="
M358.665375,574.420898 
	C358.800781,571.664795 358.819672,569.333191 358.943604,567.007141 
	C359.079010,564.465515 360.641083,563.634521 362.997284,563.724854 
	C365.329987,563.814270 366.220032,565.118958 366.218781,567.269714 
	C366.213837,575.927246 366.207825,584.584778 366.192963,593.242310 
	C366.188904,595.609070 364.763641,596.350464 362.633545,596.437927 
	C360.431610,596.528320 359.104980,595.677551 358.920258,593.403931 
	C358.839569,592.410400 358.715973,591.385559 358.865356,590.413879 
	C359.671997,585.166504 357.152374,583.825195 352.311035,583.999146 
	C345.255127,584.252625 345.222229,584.001160 345.037628,591.177673 
	C344.970581,593.783630 345.058990,596.336121 341.323730,596.323425 
	C337.513672,596.310486 337.735077,593.629272 337.730530,591.098206 
	C337.716705,583.439087 337.744293,575.780029 337.735870,568.120911 
	C337.733215,565.714111 338.214508,563.833252 341.224915,563.772583 
	C344.156250,563.713562 344.924500,565.453003 345.018982,567.898804 
	C345.044708,568.564087 344.955963,569.246338 345.072052,569.893433 
	C345.482330,572.180359 343.817383,575.809387 347.013794,576.369690 
	C350.791656,577.032166 355.177856,578.488342 358.665375,574.420898 
z"/>
<path fill="#000000" opacity="1.000000" stroke="none" 
	d="
M507.917206,564.862915 
	C508.241028,568.022766 508.391846,570.809204 508.572449,574.145447 
	C514.975952,571.017273 517.194763,560.968262 526.815796,564.181580 
	C525.880737,568.369324 522.180481,570.179810 519.876404,573.001831 
	C513.473572,580.844055 513.460693,578.365723 520.001526,585.962891 
	C522.576294,588.953552 525.947693,591.265015 528.019653,595.234436 
	C524.003357,597.160889 520.803406,596.792358 517.802307,593.523010 
	C515.251831,590.744690 512.865112,587.715027 509.260040,585.624512 
	C507.705688,588.132141 508.451141,590.670349 508.296906,593.043457 
	C508.153320,595.251831 507.316193,596.443726 504.966736,596.417236 
	C502.864716,596.393555 501.209259,595.708313 501.187256,593.409424 
	C501.101227,584.429077 500.789307,575.426392 501.310852,566.475708 
	C501.548126,562.403687 504.916687,563.049683 507.917206,564.862915 
z"/>
<path fill="#000000" opacity="1.000000" stroke="none" 
	d="
M481.814941,596.666565 
	C470.718231,594.256714 466.469971,581.507629 470.394531,573.143188 
	C474.706635,563.952759 485.213684,560.281128 494.388550,565.123474 
	C496.146881,566.051453 498.961853,566.880188 497.377136,569.800537 
	C496.110199,572.135315 494.133423,572.583252 491.447632,571.303711 
	C487.269409,569.313232 482.896332,569.319031 479.396606,572.780151 
	C476.132599,576.008179 475.673889,580.043091 477.271912,584.334473 
	C478.993835,588.958740 483.549225,591.043518 489.231995,589.692688 
	C490.188751,589.465210 491.150421,589.093994 491.996887,588.596924 
	C494.767059,586.970154 496.616241,588.424561 497.692169,590.659424 
	C498.929901,593.230408 496.540955,594.152710 494.827820,595.026489 
	C490.851349,597.054749 486.635406,597.744080 481.814941,596.666565 
z"/>
<path fill="#000000" opacity="1.000000" stroke="none" 
	d="
M390.089478,563.078857 
	C394.209900,563.233643 397.853241,563.377502 401.495667,563.541626 
	C403.925323,563.651184 405.161285,564.906616 404.971619,567.370972 
	C404.789948,569.731323 403.179688,570.503174 401.150177,570.249084 
	C396.102844,569.617065 394.839172,572.131042 395.069855,576.661133 
	C395.331116,581.791016 395.083008,586.945496 395.116577,592.088928 
	C395.134277,594.795776 394.328522,596.650391 391.194489,596.558411 
	C388.259308,596.472229 387.732788,594.573181 387.739807,592.160400 
	C387.756226,586.518921 387.582794,580.872681 387.765411,575.237427 
	C387.883118,571.606323 386.535156,570.031860 382.854523,570.247009 
	C380.549408,570.381775 377.950378,570.544373 377.853546,567.039612 
	C377.757416,563.558167 380.346985,563.670410 382.661804,563.487854 
	C384.975006,563.305542 387.295013,563.210022 390.089478,563.078857 
z"/>
<path fill="#000000" opacity="1.000000" stroke="none" 
	d="
M182.649353,570.648987 
	C179.904724,575.367859 181.591827,580.241943 181.168533,584.948364 
	C180.960922,587.256592 181.093582,589.596863 181.100113,591.922546 
	C181.107697,594.626404 180.227020,596.399902 177.091888,596.351379 
	C174.035034,596.304016 173.674484,594.388794 173.680267,592.003662 
	C173.693573,586.521423 173.519943,581.035217 173.681244,575.558167 
	C173.790451,571.850220 172.654190,569.906311 168.589600,570.213623 
	C166.325348,570.384888 163.650009,570.588257 163.748810,566.948853 
	C163.843842,563.448303 166.428802,563.813232 168.738068,563.630493 
	C174.538406,563.171326 180.320221,562.876526 186.140411,563.569275 
	C188.660461,563.869141 190.983551,564.073547 190.806625,567.308960 
	C190.639053,570.373596 188.209946,570.233704 186.008423,570.284729 
	C185.014481,570.307800 184.022415,570.412109 182.649353,570.648987 
z"/>
<path fill="#000000" opacity="1.000000" stroke="none" 
	d="
M293.658691,588.906372 
	C293.661804,581.943665 293.633301,575.470398 293.668793,568.997375 
	C293.682312,566.527771 293.316437,563.742676 297.168488,563.746155 
	C300.755005,563.749390 301.024811,566.190125 301.023987,568.848145 
	C301.021759,576.151184 301.037079,583.454529 300.976868,590.757202 
	C300.954407,593.484863 300.888214,596.316895 296.965607,596.270508 
	C293.022186,596.223877 293.805847,593.266174 293.658020,590.889526 
	C293.627136,590.393494 293.652924,589.893921 293.658691,588.906372 
z"/>
</svg>